<svg width="13" height="13" viewBox="0 0 13 13" fill="none" xmlns="http://www.w3.org/2000/svg">
<path fill-rule="evenodd" clip-rule="evenodd" d="M6.77676 2.42498C6.92322 2.25699 7.17814 2.23954 7.34612 2.38599L10.4881 5.12515C10.6149 5.23571 10.6598 5.41339 10.6008 5.57093C10.5418 5.72847 10.3912 5.83285 10.2229 5.83285H2.69022C2.46735 5.83285 2.28668 5.65217 2.28668 5.42931C2.28668 5.20646 2.46735 5.02579 2.69022 5.02579H9.14595L6.81577 2.99434C6.64779 2.84789 6.6303 2.59297 6.77676 2.42498Z" fill="#1B1B1B"/>
<path fill-rule="evenodd" clip-rule="evenodd" d="M6.13639 10.4879C5.98993 10.656 5.73501 10.6734 5.56703 10.5269L2.42506 7.78777C2.29824 7.67721 2.25332 7.49954 2.31236 7.342C2.3714 7.18446 2.52199 7.08008 2.69024 7.08008H10.2229C10.4458 7.08008 10.6265 7.26076 10.6265 7.48362C10.6265 7.70648 10.4458 7.88715 10.2229 7.88715H3.7672L6.09738 9.91861C6.26536 10.0651 6.28285 10.3199 6.13639 10.4879Z" fill="#1B1B1B"/>
</svg>
