<svg width="13" height="13" viewBox="0 0 13 13" fill="none" xmlns="http://www.w3.org/2000/svg">
<path fill-rule="evenodd" clip-rule="evenodd" d="M11.4336 3.76643C11.4336 2.80067 10.6507 2.01777 9.68491 2.01777H3.22831C2.26255 2.01777 1.47965 2.80067 1.47965 3.76643V9.14692C1.47965 10.1127 2.26255 10.8956 3.22831 10.8956H8.07076C8.29362 10.8956 8.47429 11.0763 8.47429 11.2991C8.47429 11.522 8.29362 11.7027 8.07076 11.7027H3.22831C1.81682 11.7027 0.672577 10.5584 0.672577 9.14692V3.76643C0.672577 2.35494 1.81682 1.21069 3.22831 1.21069H9.68491C11.0964 1.21069 12.2406 2.35494 12.2406 3.76643V6.99473C12.2406 7.21759 12.06 7.39826 11.8371 7.39826C11.6142 7.39826 11.4336 7.21759 11.4336 6.99473V3.76643Z" fill="#1B1B1B"/>
<path d="M3.76638 9.14694C3.76638 9.4441 3.52548 9.68499 3.22833 9.68499C2.93117 9.68499 2.69028 9.4441 2.69028 9.14694C2.69028 8.84977 2.93117 8.60889 3.22833 8.60889C3.52548 8.60889 3.76638 8.84977 3.76638 9.14694Z" fill="#1B1B1B"/>
<path fill-rule="evenodd" clip-rule="evenodd" d="M11.4336 4.16987H1.47965V5.51499H11.4336V4.16987ZM12.2406 3.76633V5.91853C12.2406 6.14139 12.06 6.32207 11.8371 6.32207H1.07611C0.969091 6.32207 0.866447 6.27956 0.79077 6.20386C0.715094 6.12821 0.672577 6.02555 0.672577 5.91853V3.76633C0.672577 3.54346 0.853249 3.36279 1.07611 3.36279H11.8371C12.06 3.36279 12.2406 3.54346 12.2406 3.76633Z" fill="#1B1B1B"/>
<path fill-rule="evenodd" clip-rule="evenodd" d="M10.3575 10.5478L9.97022 10.1605C9.81263 10.0029 9.55716 10.0029 9.39957 10.1605C9.24197 10.3181 9.24197 10.5737 9.39957 10.7312L10.0952 11.4268C10.4629 11.7946 11.0591 11.7946 11.4268 11.4268L12.1224 10.7312C12.28 10.5737 12.28 10.3181 12.1224 10.1605C11.9648 10.0029 11.7094 10.0029 11.5518 10.1605L11.1645 10.5478V8.60886C11.1645 8.386 10.9839 8.20532 10.761 8.20532C10.5381 8.20532 10.3575 8.386 10.3575 8.60886V10.5478Z" fill="#1B1B1B"/>
</svg>
