<svg width="13" height="13" viewBox="0 0 13 13" fill="none" xmlns="http://www.w3.org/2000/svg">
<g clip-path="url(#clip0_8401_68)">
<path d="M8.07074 10.0883H4.84244C4.73542 10.0883 4.63278 10.0458 4.5571 9.97013C4.48142 9.89445 4.4389 9.79181 4.4389 9.68479C4.4389 9.57776 4.48142 9.47512 4.5571 9.39944C4.63278 9.32377 4.73542 9.28125 4.84244 9.28125H8.07074C8.17776 9.28125 8.2804 9.32377 8.35608 9.39944C8.43176 9.47512 8.47427 9.57776 8.47427 9.68479C8.47427 9.79181 8.43176 9.89445 8.35608 9.97013C8.2804 10.0458 8.17776 10.0883 8.07074 10.0883Z" fill="#1B1B1B"/>
<path d="M9.68488 12.2405H3.22829C2.55073 12.2397 1.90116 11.9701 1.42205 11.491C0.942946 11.0119 0.673408 10.3623 0.672553 9.68478V5.87647C0.671661 5.49308 0.757436 5.11445 0.923467 4.76888C1.0895 4.42331 1.33149 4.11973 1.63136 3.88084L5.19594 1.02918C5.55277 0.740956 5.99762 0.58374 6.45632 0.58374C6.91502 0.58374 7.35986 0.740956 7.7167 1.02918L11.2807 3.88084C11.5808 4.11962 11.8229 4.42317 11.989 4.76875C12.1552 5.11434 12.241 5.49303 12.2401 5.87647V9.68478C12.2392 10.3623 11.9698 11.0117 11.4908 11.4908C11.0118 11.9699 10.3624 12.2395 9.68488 12.2405ZM2.13605 4.5109C1.93076 4.6743 1.76508 4.88201 1.6514 5.11849C1.53773 5.35497 1.47901 5.61409 1.47963 5.87647V9.68478C1.4802 10.1484 1.66461 10.5928 1.99243 10.9206C2.32024 11.2485 2.76469 11.4329 3.22829 11.4334H9.68488C10.1485 11.4329 10.5929 11.2485 10.9207 10.9206C11.2486 10.5928 11.433 10.1484 11.4335 9.68478V5.87647C11.4342 5.61409 11.3754 5.35497 11.2618 5.11849C11.1481 4.88201 10.9824 4.6743 10.7771 4.5109L7.21308 1.65924C6.99893 1.48642 6.73204 1.39216 6.45685 1.39216C6.18166 1.39216 5.91478 1.48642 5.70063 1.65924L2.13551 4.5109H2.13605Z" fill="#1B1B1B"/>
</g>
<defs>
<clipPath id="clip0_8401_68">
<rect width="12.9132" height="12.9132" fill="white"/>
</clipPath>
</defs>
</svg>
