<svg width="13" height="13" viewBox="0 0 13 13" fill="none" xmlns="http://www.w3.org/2000/svg">
<g clip-path="url(#clip0_8401_93)">
<path d="M11.0221 8.34767C10.3189 7.64446 9.48184 7.12387 8.56858 6.80873C9.5467 6.13505 10.1893 5.00759 10.1893 3.73272C10.1893 1.6745 8.51481 0 6.45659 0C4.39838 0 2.72388 1.6745 2.72388 3.73272C2.72388 5.00759 3.36648 6.13505 4.34463 6.80873C3.43138 7.12387 2.59434 7.64446 1.8911 8.34767C0.671612 9.56718 0 11.1886 0 12.9132H1.00884C1.00884 9.90928 3.45269 7.46544 6.45659 7.46544C9.4605 7.46544 11.9043 9.90928 11.9043 12.9132H12.9132C12.9132 11.1886 12.2416 9.56718 11.0221 8.34767ZM6.45659 6.45659C4.95465 6.45659 3.73272 5.23468 3.73272 3.73272C3.73272 2.23075 4.95465 1.00884 6.45659 1.00884C7.95853 1.00884 9.18047 2.23075 9.18047 3.73272C9.18047 5.23468 7.95853 6.45659 6.45659 6.45659Z" fill="#1B1B1B"/>
</g>
<defs>
<clipPath id="clip0_8401_93">
<rect width="12.9132" height="12.9132" fill="white"/>
</clipPath>
</defs>
</svg>
