<svg width="14" height="14" viewBox="0 0 14 14" fill="none" xmlns="http://www.w3.org/2000/svg">
<g clip-path="url(#clip0_108_2318)">
<path d="M12.4808 5.3412C12.4251 5.35255 12.3723 5.37475 12.3252 5.40653C12.2781 5.43831 12.2378 5.47905 12.2065 5.52643C12.1751 5.57381 12.1535 5.62689 12.1427 5.68265C12.1319 5.73841 12.1322 5.79575 12.1435 5.85139C12.3637 6.92967 12.245 8.04968 11.8035 9.05779C11.362 10.0659 10.6194 10.9127 9.67767 11.4822C8.73589 12.0516 7.64101 12.3157 6.5432 12.2383C5.44539 12.1609 4.39841 11.7457 3.54586 11.0497C2.69332 10.3538 2.07696 9.41113 1.78133 8.35104C1.4857 7.29095 1.52527 6.16536 1.89462 5.12865C2.26397 4.09194 2.94501 3.19488 3.84432 2.56052C4.74364 1.92616 5.81719 1.58555 6.91773 1.58543C7.46017 1.58491 7.99948 1.66753 8.51689 1.83043C8.62551 1.86253 8.74238 1.85072 8.84239 1.79755C8.94239 1.74439 9.01754 1.6541 9.05168 1.5461C9.08581 1.43811 9.07621 1.32103 9.02493 1.22004C8.97365 1.11906 8.88479 1.04222 8.77746 1.00606C7.48252 0.600243 6.09008 0.63136 4.81456 1.09462C3.53904 1.55788 2.45117 2.4276 1.71848 3.56984C0.985781 4.71208 0.648888 6.06351 0.759675 7.41602C0.870462 8.76853 1.42279 10.0471 2.33159 11.0549C3.2404 12.0627 4.4553 12.7438 5.7892 12.9933C7.12311 13.2428 8.50205 13.0469 9.71369 12.4358C10.9253 11.8246 11.9025 10.8322 12.4947 9.61114C13.0868 8.39013 13.2612 7.0083 12.991 5.67844C12.9679 5.56613 12.9012 5.46755 12.8056 5.40433C12.71 5.34111 12.5931 5.3184 12.4808 5.3412ZM6.90505 10.2326C7.01971 10.2326 7.12969 10.1871 7.21077 10.106C7.29185 10.0249 7.33741 9.91496 7.33741 9.80029V9.5697C7.68365 9.51981 8.00179 9.35116 8.2374 9.09259C8.47302 8.83402 8.61145 8.50161 8.62902 8.15224C8.64659 7.80287 8.54221 7.45824 8.33373 7.17734C8.12525 6.89644 7.82563 6.69671 7.48614 6.61235L6.55916 6.38175C6.41762 6.34635 6.29225 6.26405 6.20347 6.14828C6.11545 6.03556 6.06811 5.8964 6.06915 5.75339C6.06976 5.58219 6.13815 5.4182 6.25937 5.29731C6.38059 5.17641 6.54476 5.10846 6.71596 5.1083H7.1195C7.27882 5.10859 7.43247 5.16752 7.55112 5.27384C7.66978 5.38017 7.74515 5.52645 7.76285 5.68479C7.76757 5.74246 7.78383 5.7986 7.81064 5.84987C7.83746 5.90115 7.8743 5.94652 7.91898 5.9833C7.96365 6.02008 8.01526 6.04751 8.07073 6.06398C8.1262 6.08045 8.18442 6.08561 8.24193 6.07917C8.29943 6.07272 8.35506 6.0548 8.40551 6.02646C8.45596 5.99812 8.50021 5.95994 8.53564 5.91418C8.57107 5.86843 8.59695 5.81603 8.61175 5.76009C8.62655 5.70414 8.62997 5.6458 8.62181 5.58851C8.58475 5.25648 8.43852 4.94615 8.20607 4.70619C7.97362 4.46622 7.66809 4.3102 7.33741 4.26261V4.03547C7.33741 3.9208 7.29185 3.81083 7.21077 3.72975C7.12969 3.64866 7.01971 3.60311 6.90505 3.60311C6.79038 3.60311 6.6804 3.64866 6.59932 3.72975C6.51824 3.81083 6.47268 3.9208 6.47268 4.03547V4.26606C6.12975 4.32186 5.81657 4.49426 5.58601 4.75417C5.35544 5.01409 5.22162 5.34559 5.20712 5.69273C5.19262 6.03987 5.29834 6.38138 5.50643 6.65961C5.71452 6.93785 6.01223 7.13576 6.34932 7.21996L7.2763 7.45055C7.42932 7.48908 7.56299 7.58217 7.6522 7.71233C7.74141 7.84248 7.78002 8.00074 7.76076 8.15735C7.7415 8.31396 7.66571 8.45815 7.54762 8.56282C7.42954 8.66748 7.27729 8.72541 7.1195 8.72573H6.71596C6.55663 8.72544 6.40299 8.66651 6.28433 8.56019C6.16568 8.45386 6.09031 8.30758 6.07261 8.14924C6.06788 8.09157 6.05163 8.03543 6.02481 7.98416C5.99799 7.93288 5.96115 7.88751 5.91648 7.85073C5.8718 7.81395 5.8202 7.78652 5.76473 7.77005C5.70925 7.75358 5.65104 7.74842 5.59353 7.75486C5.53602 7.76131 5.4804 7.77923 5.42994 7.80757C5.37949 7.83591 5.33524 7.87409 5.29982 7.91985C5.26439 7.9656 5.23851 8.018 5.22371 8.07394C5.20891 8.12989 5.20549 8.18823 5.21365 8.24552C5.24997 8.5735 5.39274 8.88054 5.62011 9.11969C5.84749 9.35883 6.14695 9.51689 6.47268 9.5697V9.80029C6.47268 9.91496 6.51824 10.0249 6.59932 10.106C6.6804 10.1871 6.79038 10.2326 6.90505 10.2326ZM11.224 4.34101C11.3052 4.42183 11.4151 4.46722 11.5296 4.46722C11.6441 4.46722 11.754 4.42183 11.8351 4.34101L12.9881 3.18804C13.0645 3.10608 13.106 2.99768 13.1041 2.88567C13.1021 2.77366 13.0567 2.66678 12.9775 2.58757C12.8983 2.50835 12.7914 2.46298 12.6794 2.461C12.5674 2.45902 12.459 2.5006 12.377 2.57697L11.9619 2.99146V1.15306C11.9619 1.03839 11.9164 0.928422 11.8353 0.847339C11.7542 0.766255 11.6442 0.720703 11.5296 0.720703C11.4149 0.720703 11.3049 0.766255 11.2239 0.847339C11.1428 0.928422 11.0972 1.03839 11.0972 1.15306V2.99146L10.6822 2.57697C10.6002 2.5006 10.4918 2.45902 10.3798 2.461C10.2678 2.46298 10.1609 2.50835 10.0817 2.58757C10.0025 2.66678 9.95709 2.77366 9.95511 2.88567C9.95313 2.99768 9.99471 3.10608 10.0711 3.18804L11.224 4.34101Z" fill="#0D0D0C"/>
</g>
<defs>
<clipPath id="clip0_108_2318">
<rect width="13.8356" height="13.8356" fill="white"/>
</clipPath>
</defs>
</svg>
