<svg width="139" height="139" viewBox="0 0 139 139" fill="none" xmlns="http://www.w3.org/2000/svg">
<path d="M101.749 0L117.919 16.1766L96.2003 37.8952C88.8176 45.2843 79.0424 49.0238 69.3634 49.011C59.6907 49.0238 49.909 45.2843 42.5262 37.8952L20.8077 16.1766L36.978 0L58.6964 21.7185C61.6726 24.6819 65.4635 26.1251 69.3569 26.1379C73.2504 26.1251 77.0411 24.6883 80.0173 21.7185L101.736 0H101.749ZM138.733 101.742L117.015 80.0237C114.051 77.0475 112.614 73.2567 112.602 69.3633C112.614 65.4634 114.051 61.6727 117.015 58.7029L138.733 36.9843L122.563 20.8077L100.844 42.5262C93.455 49.909 89.7157 59.6907 89.7285 69.3633C89.7157 79.0359 93.455 88.8176 100.844 96.1939L122.563 117.912L138.739 101.742H138.733ZM36.9844 138.727L58.7029 117.008C61.6791 114.038 65.4635 112.602 69.3634 112.589C73.2568 112.602 77.0475 114.038 80.0237 117.008L101.742 138.727L117.919 122.55L96.2003 100.831C88.8176 93.4422 79.0424 89.7027 69.3634 89.7156C59.6907 89.7027 49.909 93.4422 42.5262 100.831L20.8077 122.55L36.9844 138.727ZM0 36.9843L21.7186 58.7029C24.682 61.6791 26.1187 65.4699 26.1315 69.3633C26.1187 73.2567 24.682 77.0475 21.7186 80.0237L0 101.742L16.1766 117.919L37.8952 96.2004C45.2844 88.8176 49.0239 79.0423 49.0111 69.3697C49.0239 59.6971 45.2844 49.9154 37.8952 42.5326L16.1766 20.8141L0 36.9908V36.9843Z" fill="#00B4FD"/>
</svg>
