<svg width="18" height="18" viewBox="0 0 18 18" fill="none" xmlns="http://www.w3.org/2000/svg">
<foreignObject x="-53.8049" y="-53.8049" width="124.827" height="124.827"><div xmlns="http://www.w3.org/1999/xhtml" style="backdrop-filter:blur(26.9px);clip-path:url(#bgblur_0_108_2300_clip_path);height:100%;width:100%"></div></foreignObject><rect data-figma-bg-blur-radius="53.8049" width="17.2176" height="17.2176" rx="4" fill="#FFFAFA" fill-opacity="0.2"/>
<path fill-rule="evenodd" clip-rule="evenodd" d="M5.68188 4.51625C6.3068 3.71058 7.27519 3.10132 8.60671 3.10132C9.93795 3.10132 10.9063 3.71059 11.5313 4.51623C12.1464 5.30918 12.4327 6.29438 12.4327 7.09339C12.4327 7.32273 12.4258 7.49299 12.4205 7.62218C12.4194 7.64876 12.4184 7.67356 12.4175 7.6968C12.4123 7.83578 12.4134 7.90255 12.4241 7.96868C12.4484 8.11912 12.5253 8.30442 12.8328 8.98199C12.8358 8.98877 12.8387 8.99566 12.8414 9.0026C13.0635 9.57422 13.0139 10.1001 12.7497 10.5457C12.4976 10.971 12.0738 11.2841 11.6158 11.5126C10.6999 11.9695 9.48911 12.1662 8.60671 12.1662C7.72404 12.1662 6.51312 11.9695 5.59719 11.5126C5.13916 11.2841 4.71545 10.9709 4.46342 10.5457C4.19929 10.1 4.14974 9.57411 4.37201 9.00249C4.3747 8.9956 4.37757 8.98877 4.38064 8.98199C4.68809 8.30442 4.76504 8.11912 4.78934 7.96868C4.80003 7.90255 4.80108 7.83578 4.79589 7.6968C4.79502 7.67356 4.794 7.64876 4.79291 7.62218C4.78762 7.49299 4.78065 7.32273 4.78065 7.09339C4.78065 6.29442 5.06682 5.30922 5.68188 4.51625ZM6.31961 5.01089C5.81989 5.65516 5.58773 6.46422 5.58773 7.09339C5.58773 7.30489 5.59396 7.45769 5.59921 7.58634C5.60034 7.61411 5.60143 7.64074 5.6024 7.66662C5.60775 7.80969 5.61056 7.94592 5.58609 8.09744C5.54062 8.37884 5.40238 8.68348 5.12584 9.29293L5.12044 9.30477C4.98653 9.65595 5.02949 9.91782 5.15772 10.1342C5.29923 10.373 5.5705 10.5974 5.95747 10.7904C6.73152 11.1765 7.81061 11.3591 8.60671 11.3591C9.40248 11.3591 10.4815 11.1765 11.2555 10.7904C11.6425 10.5974 11.9138 10.373 12.0554 10.1342C12.1837 9.91777 12.2267 9.6559 12.0929 9.30477L12.0876 9.29287C11.811 8.68348 11.6728 8.37884 11.6273 8.09744C11.6028 7.94592 11.6056 7.80969 11.611 7.66662C11.612 7.64079 11.6131 7.61411 11.6142 7.58634C11.6195 7.4577 11.6257 7.3049 11.6257 7.09339C11.6257 6.46426 11.3934 5.6552 10.8936 5.01092C10.4036 4.37932 9.6608 3.90839 8.60671 3.90839C7.55235 3.90839 6.80948 4.37933 6.31961 5.01089Z" fill="#0D0D0C"/>
<path fill-rule="evenodd" clip-rule="evenodd" d="M7.09498 12.8877C7.2612 12.7393 7.5163 12.7536 7.66477 12.9199C8.20583 13.5256 9.0114 13.52 9.54897 12.9195C9.69757 12.7535 9.95272 12.7394 10.1188 12.8881C10.2848 13.0367 10.2989 13.2918 10.1502 13.4578C9.29506 14.4132 7.92793 14.426 7.06285 13.4575C6.91438 13.2913 6.92877 13.0362 7.09498 12.8877Z" fill="#0D0D0C"/>
<defs>
<clipPath id="bgblur_0_108_2300_clip_path" transform="translate(53.8049 53.8049)"><rect width="17.2176" height="17.2176" rx="4"/>
</clipPath></defs>
</svg>
