<svg width="33" height="33" viewBox="0 0 33 33" fill="none" xmlns="http://www.w3.org/2000/svg">
<foreignObject x="-53.8048" y="-53.8049" width="139.893" height="139.893"><div xmlns="http://www.w3.org/1999/xhtml" style="backdrop-filter:blur(26.9px);clip-path:url(#bgblur_0_108_2309_clip_path);height:100%;width:100%"></div></foreignObject><rect data-figma-bg-blur-radius="53.8049" width="32.283" height="32.283" rx="9" fill="#FFFAFA" fill-opacity="0.2"/>
<path d="M14.412 15.7091H11.8178C11.4738 15.7091 11.1439 15.5724 10.9007 15.3292C10.6574 15.0859 10.5208 14.756 10.5208 14.412V11.8178C10.5208 11.4738 10.6574 11.1439 10.9007 10.9007C11.1439 10.6574 11.4738 10.5208 11.8178 10.5208H14.412C14.756 10.5208 15.0859 10.6574 15.3292 10.9007C15.5724 11.1439 15.7091 11.4738 15.7091 11.8178V14.412C15.7091 14.756 15.5724 15.0859 15.3292 15.3292C15.0859 15.5724 14.756 15.7091 14.412 15.7091ZM11.8178 11.3855C11.7032 11.3855 11.5932 11.431 11.5121 11.5121C11.431 11.5932 11.3855 11.7032 11.3855 11.8178V14.412C11.3855 14.5267 11.431 14.6366 11.5121 14.7177C11.5932 14.7988 11.7032 14.8444 11.8178 14.8444H14.412C14.5267 14.8444 14.6366 14.7988 14.7177 14.7177C14.7988 14.6366 14.8444 14.5267 14.8444 14.412V11.8178C14.8444 11.7032 14.7988 11.5932 14.7177 11.5121C14.6366 11.431 14.5267 11.3855 14.412 11.3855H11.8178Z" fill="#0D0D0C"/>
<path d="M20.4651 15.7091H17.8709C17.5269 15.7091 17.197 15.5724 16.9538 15.3292C16.7105 15.0859 16.5739 14.756 16.5739 14.412V11.8178C16.5739 11.4738 16.7105 11.1439 16.9538 10.9007C17.197 10.6574 17.5269 10.5208 17.8709 10.5208H20.4651C20.8091 10.5208 21.139 10.6574 21.3823 10.9007C21.6255 11.1439 21.7622 11.4738 21.7622 11.8178V14.412C21.7622 14.756 21.6255 15.0859 21.3823 15.3292C21.139 15.5724 20.8091 15.7091 20.4651 15.7091ZM17.8709 11.3855C17.7563 11.3855 17.6463 11.431 17.5652 11.5121C17.4841 11.5932 17.4386 11.7032 17.4386 11.8178V14.412C17.4386 14.5267 17.4841 14.6366 17.5652 14.7177C17.6463 14.7988 17.7563 14.8444 17.8709 14.8444H20.4651C20.5798 14.8444 20.6897 14.7988 20.7708 14.7177C20.8519 14.6366 20.8975 14.5267 20.8975 14.412V11.8178C20.8975 11.7032 20.8519 11.5932 20.7708 11.5121C20.6897 11.431 20.5798 11.3855 20.4651 11.3855H17.8709Z" fill="#0D0D0C"/>
<path d="M14.412 21.7621H11.8178C11.4738 21.7621 11.1439 21.6254 10.9007 21.3822C10.6574 21.1389 10.5208 20.809 10.5208 20.465V17.8708C10.5208 17.5268 10.6574 17.1969 10.9007 16.9536C11.1439 16.7104 11.4738 16.5737 11.8178 16.5737H14.412C14.756 16.5737 15.0859 16.7104 15.3292 16.9536C15.5724 17.1969 15.7091 17.5268 15.7091 17.8708V20.465C15.7091 20.809 15.5724 21.1389 15.3292 21.3822C15.0859 21.6254 14.756 21.7621 14.412 21.7621ZM11.8178 17.4385C11.7032 17.4385 11.5932 17.484 11.5121 17.5651C11.431 17.6462 11.3855 17.7561 11.3855 17.8708V20.465C11.3855 20.5797 11.431 20.6896 11.5121 20.7707C11.5932 20.8518 11.7032 20.8973 11.8178 20.8973H14.412C14.5267 20.8973 14.6366 20.8518 14.7177 20.7707C14.7988 20.6896 14.8444 20.5797 14.8444 20.465V17.8708C14.8444 17.7561 14.7988 17.6462 14.7177 17.5651C14.6366 17.484 14.5267 17.4385 14.412 17.4385H11.8178Z" fill="#0D0D0C"/>
<path d="M19.168 21.7621C18.6549 21.7621 18.1534 21.6099 17.7268 21.3249C17.3002 21.0398 16.9677 20.6347 16.7713 20.1606C16.575 19.6866 16.5236 19.165 16.6237 18.6618C16.7238 18.1586 16.9709 17.6963 17.3337 17.3335C17.6965 16.9707 18.1587 16.7237 18.6619 16.6236C19.1651 16.5235 19.6867 16.5749 20.1608 16.7712C20.6348 16.9675 21.0399 17.3 21.325 17.7267C21.61 18.1533 21.7622 18.6548 21.7622 19.1679C21.7615 19.8557 21.488 20.5151 21.0016 21.0015C20.5153 21.4878 19.8558 21.7614 19.168 21.7621ZM19.168 17.4385C18.826 17.4385 18.4916 17.5399 18.2072 17.7299C17.9228 17.92 17.7011 18.1901 17.5702 18.5061C17.4393 18.8221 17.4051 19.1698 17.4718 19.5053C17.5385 19.8408 17.7033 20.1489 17.9451 20.3908C18.187 20.6327 18.4951 20.7974 18.8306 20.8641C19.1661 20.9308 19.5138 20.8966 19.8299 20.7657C20.1459 20.6348 20.416 20.4131 20.606 20.1287C20.796 19.8443 20.8975 19.51 20.8975 19.1679C20.8975 18.7092 20.7153 18.2693 20.3909 17.945C20.0666 17.6207 19.6267 17.4385 19.168 17.4385Z" fill="#0D0D0C"/>
<defs>
<clipPath id="bgblur_0_108_2309_clip_path" transform="translate(53.8048 53.8049)"><rect width="32.283" height="32.283" rx="9"/>
</clipPath></defs>
</svg>
