<svg width="14" height="14" viewBox="0 0 14 14" fill="none" xmlns="http://www.w3.org/2000/svg">
<g clip-path="url(#clip0_108_2306)">
<path d="M6.91778 7.78253C4.92892 7.81841 4.92935 10.7736 6.91778 10.8091C8.90664 10.7732 8.90621 7.81798 6.91778 7.78253ZM6.91778 9.94433C6.06992 9.94001 6.06992 8.65157 6.91778 8.64725C7.76564 8.65157 7.76564 9.94001 6.91778 9.94433ZM11.6738 5.62072C10.5059 5.62116 3.33005 5.62029 2.16181 5.62072C1.44668 5.62072 0.864725 6.20268 0.864725 6.91781V7.76523V10.8264C0.799006 11.842 0.899746 12.9008 2.16181 12.9709H3.00924C3.42084 12.9748 11.5436 12.9683 11.6738 12.9709C12.3889 12.9709 12.9708 12.3889 12.9708 11.6738V10.8264V7.76523C13.0366 6.74962 12.9358 5.69077 11.6738 5.62072ZM10.3987 12.1061H3.43684C3.3361 11.2077 2.62789 10.4995 1.72945 10.3987V8.19327C2.62789 8.0921 3.3361 7.38389 3.43684 6.48544H10.3983C10.4995 7.38389 11.2077 8.0921 12.1057 8.19284V10.3983C11.2077 10.4995 10.4995 11.2077 10.3987 12.1061ZM11.6738 6.48544C12.1377 6.48631 12.1243 6.99304 12.1061 7.32855C11.6828 7.24251 11.3495 6.90829 11.263 6.48544H11.6738ZM1.72945 6.91781C1.73031 6.45388 2.23704 6.46729 2.57255 6.48544C2.48608 6.90829 2.1523 7.24208 1.72945 7.32855V6.91781ZM2.16181 12.1061C1.69788 12.1053 1.71129 11.5985 1.72945 11.263C2.15273 11.3495 2.48608 11.6833 2.57255 12.1061H2.16181ZM12.1061 11.6738C12.1052 12.1377 11.5985 12.1243 11.263 12.1061C11.3495 11.6833 11.6833 11.3495 12.1061 11.263V11.6738ZM4.88266 3.33224C4.7136 3.16318 4.7136 2.88993 4.88266 2.72088C4.93973 2.68499 6.72192 0.827135 6.75262 0.898042C6.91043 0.831026 7.10413 0.869939 7.22389 0.991865L8.95291 2.72088C9.35457 3.1113 8.73283 3.7352 8.34155 3.33224L7.35014 2.34083V4.756C7.35014 4.99466 7.15688 5.18836 6.91778 5.18836C6.67869 5.18836 6.48542 4.99466 6.48542 4.756V2.34083L5.49402 3.33224C5.32496 3.50129 5.05171 3.50129 4.88266 3.33224Z" fill="#0D0D0C"/>
</g>
<defs>
<clipPath id="clip0_108_2306">
<rect width="13.8356" height="13.8356" fill="white"/>
</clipPath>
</defs>
</svg>
