<svg width="19" height="19" viewBox="0 0 19 19" fill="none" xmlns="http://www.w3.org/2000/svg">
<path fill-rule="evenodd" clip-rule="evenodd" d="M9.19897 18.3979C14.2794 18.3979 18.3979 14.2794 18.3979 9.19892C18.3979 4.11851 14.2794 0 9.19897 0C4.11853 0 3.05176e-05 4.11851 3.05176e-05 9.19892C3.05176e-05 14.2794 4.11853 18.3979 9.19897 18.3979ZM12.0687 4.28525C12.2084 3.78906 11.7269 3.49565 11.2871 3.80896L5.14827 8.18225C4.67135 8.52202 4.74637 9.19892 5.26095 9.19892H6.87748V9.18641H10.028L7.46093 10.0922L6.32923 14.1126C6.18954 14.6088 6.67101 14.9022 7.11081 14.5889L13.2497 10.2156C13.7266 9.87587 13.6515 9.19892 13.137 9.19892H10.6856L12.0687 4.28525Z" fill="#586E84"/>
</svg>
